<svg version="1.1" id="Layer_1" xmlns="http://www.w3.org/2000/svg" xmlns:xlink="http://www.w3.org/1999/xlink" x="0px" y="0px"
	 width="100%" viewBox="0 0 717 572" enable-background="new 0 0 717 572" xml:space="preserve">
<path fill="#000000" opacity="1.000000" stroke="none" 
	d="
M429.000000,573.000000 
	C286.000031,573.000000 143.500046,573.000000 1.000057,573.000000 
	C1.000038,382.333405 1.000038,191.666779 1.000019,1.000134 
	C239.999893,1.000089 478.999786,1.000089 717.999756,1.000045 
	C717.999878,191.666519 717.999878,382.333038 717.999939,572.999756 
	C621.833313,573.000000 525.666687,573.000000 429.000000,573.000000 
M322.258850,213.442871 
	C326.481567,214.740753 328.403625,217.810333 329.791809,221.894089 
	C336.707916,242.239914 343.884949,262.497131 350.986877,282.779633 
	C351.541199,284.362793 352.223907,285.901031 353.071320,288.021698 
	C358.726990,277.499786 358.907776,275.626526 355.569702,266.082428 
	C349.464905,248.627701 343.477509,231.130066 337.124695,213.766098 
	C336.211975,211.271347 333.950531,208.655273 331.612671,207.396179 
	C316.067261,199.023911 300.334137,190.999985 284.651276,182.883545 
	C283.410950,182.241623 282.089417,181.756546 279.950531,180.826920 
	C279.950531,183.601501 279.950562,185.550842 279.950562,187.500198 
	C279.950653,243.485992 279.910492,299.471893 280.031708,355.457397 
	C280.040802,359.660370 279.143616,361.809387 274.545837,361.141846 
	C271.676514,360.725250 270.508881,361.913696 270.353699,365.055084 
	C270.137024,369.441528 271.190735,371.730316 276.061981,371.020538 
	C278.019897,370.735229 280.054138,370.973602 282.053619,370.973602 
	C290.820526,370.973633 299.587433,370.973633 309.276855,370.973633 
	C309.276855,320.070099 309.276855,269.880951 309.276855,219.691803 
	C309.756683,219.626205 310.236511,219.560623 310.716370,219.495041 
	C311.431519,221.275681 312.216339,223.031876 312.850891,224.840790 
	C318.476044,240.875763 323.661926,257.080017 329.799774,272.915558 
	C335.650818,288.011200 339.845886,303.205475 338.039581,319.552551 
	C337.636078,323.204071 338.950012,324.528046 342.771271,324.450073 
	C353.930450,324.222351 365.097290,324.369659 376.261108,324.369263 
	C383.757965,324.368988 383.628174,324.365601 383.793365,316.820435 
	C383.960266,309.197357 382.833099,301.082153 385.041077,294.051971 
	C392.523773,270.226929 401.222961,246.783585 409.496338,223.208099 
	C409.973419,221.848633 410.796417,220.610580 411.458435,219.316025 
	C411.991577,219.449432 412.524750,219.582825 413.057892,219.716217 
	C413.057892,270.054199 413.057892,320.392181 413.057892,370.663330 
	C426.172607,370.663330 438.444061,370.663330 450.884644,370.663330 
	C450.884644,367.451538 450.884644,364.553802 450.884644,361.113403 
	C443.573486,361.113403 436.613617,361.117340 429.653717,361.112335 
	C422.790558,361.107422 422.776703,361.103424 422.776123,354.394897 
	C422.771973,305.407318 422.772461,256.419769 422.775208,207.432190 
	C422.775604,200.677368 424.129028,199.189545 432.010925,197.898392 
	C432.010925,250.714554 432.010925,303.416748 432.010925,355.994476 
	C441.871918,357.567902 441.872803,357.567902 441.872864,348.805450 
	C441.873138,294.985779 441.878174,241.166092 441.852692,187.346436 
	C441.851715,185.328308 441.552765,183.310303 441.344330,180.682861 
	C423.694611,189.834320 406.796265,198.456146 390.082947,207.422958 
	C387.750488,208.674347 385.508698,211.327866 384.610901,213.829697 
	C375.440155,239.385498 366.503326,265.026001 357.662231,290.698303 
	C356.604584,293.769440 356.221680,297.153473 356.027893,300.422180 
	C355.757477,304.983429 355.959747,309.572723 355.959747,313.987213 
	C348.088409,315.216309 347.674011,315.113220 348.038940,308.316345 
	C348.513062,299.486908 346.910858,291.210754 343.686646,283.001465 
	C339.974487,273.549835 336.858704,263.861938 333.559937,254.250565 
	C329.022766,241.031052 324.557037,227.787033 320.815765,213.959656 
	C321.060242,213.752884 321.304749,213.546127 322.258850,213.442871 
z"/>
<path fill="#E3BB47" opacity="1.000000" stroke="none" 
	d="
M320.060699,214.553497 
	C324.557037,227.787033 329.022766,241.031052 333.559937,254.250565 
	C336.858704,263.861938 339.974487,273.549835 343.686646,283.001465 
	C346.910858,291.210754 348.513062,299.486908 348.038940,308.316345 
	C347.674011,315.113220 348.088409,315.216309 355.959747,313.987213 
	C355.959747,309.572723 355.757477,304.983429 356.027893,300.422180 
	C356.221680,297.153473 356.604584,293.769440 357.662231,290.698303 
	C366.503326,265.026001 375.440155,239.385498 384.610901,213.829697 
	C385.508698,211.327866 387.750488,208.674347 390.082947,207.422958 
	C406.796265,198.456146 423.694611,189.834320 441.344330,180.682861 
	C441.552765,183.310303 441.851715,185.328308 441.852692,187.346436 
	C441.878174,241.166092 441.873138,294.985779 441.872864,348.805450 
	C441.872803,357.567902 441.871918,357.567902 432.010925,355.994476 
	C432.010925,303.416748 432.010925,250.714554 432.010925,197.898392 
	C424.129028,199.189545 422.775604,200.677368 422.775208,207.432190 
	C422.772461,256.419769 422.771973,305.407318 422.776123,354.394897 
	C422.776703,361.103424 422.790558,361.107422 429.653717,361.112335 
	C436.613617,361.117340 443.573486,361.113403 450.884644,361.113403 
	C450.884644,364.553802 450.884644,367.451538 450.884644,370.663330 
	C438.444061,370.663330 426.172607,370.663330 413.057892,370.663330 
	C413.057892,320.392181 413.057892,270.054199 413.057892,219.716217 
	C412.524750,219.582825 411.991577,219.449432 411.458435,219.316025 
	C410.796417,220.610580 409.973419,221.848633 409.496338,223.208099 
	C401.222961,246.783585 392.523773,270.226929 385.041077,294.051971 
	C382.833099,301.082153 383.960266,309.197357 383.793365,316.820435 
	C383.628174,324.365601 383.757965,324.368988 376.261108,324.369263 
	C365.097290,324.369659 353.930450,324.222351 342.771271,324.450073 
	C338.950012,324.528046 337.636078,323.204071 338.039581,319.552551 
	C339.845886,303.205475 335.650818,288.011200 329.799774,272.915558 
	C323.661926,257.080017 318.476044,240.875763 312.850891,224.840790 
	C312.216339,223.031876 311.431519,221.275681 310.716370,219.495041 
	C310.236511,219.560623 309.756683,219.626205 309.276855,219.691803 
	C309.276855,269.880951 309.276855,320.070099 309.276855,370.973633 
	C299.587433,370.973633 290.820526,370.973633 282.053619,370.973602 
	C280.054138,370.973602 278.019897,370.735229 276.061981,371.020538 
	C271.190735,371.730316 270.137024,369.441528 270.353699,365.055084 
	C270.508881,361.913696 271.676514,360.725250 274.545837,361.141846 
	C279.143616,361.809387 280.040802,359.660370 280.031708,355.457397 
	C279.910492,299.471893 279.950653,243.485992 279.950562,187.500198 
	C279.950562,185.550842 279.950531,183.601501 279.950531,180.826920 
	C282.089417,181.756546 283.410950,182.241623 284.651276,182.883545 
	C300.334137,190.999985 316.067261,199.023911 331.612671,207.396179 
	C333.950531,208.655273 336.211975,211.271347 337.124695,213.766098 
	C343.477509,231.130066 349.464905,248.627701 355.569702,266.082428 
	C358.907776,275.626526 358.726990,277.499786 353.071320,288.021698 
	C352.223907,285.901031 351.541199,284.362793 350.986877,282.779633 
	C343.884949,262.497131 336.707916,242.239914 329.791809,221.894089 
	C328.403625,217.810333 326.481567,214.740753 321.618378,213.179489 
	C320.672180,213.461899 320.366455,214.007690 320.060699,214.553497 
M299.104706,348.485504 
	C299.104675,301.514099 299.105499,254.542679 299.103668,207.571259 
	C299.103424,200.701538 297.534363,198.981934 289.782013,197.866821 
	C289.782013,199.894180 289.782013,201.844177 289.782013,203.794189 
	C289.782013,253.930344 289.781952,304.066498 289.782501,354.202667 
	C289.782501,355.368622 289.865570,356.540314 289.777832,357.699341 
	C289.580811,360.302032 290.789612,361.079346 293.310394,361.233337 
	C297.272919,361.475494 299.857666,360.837646 299.155273,355.966217 
	C298.849426,353.845001 299.104401,351.642944 299.104706,348.485504 
M368.756653,288.273041 
	C365.613159,294.610504 365.362946,301.400513 365.802429,308.247803 
	C365.977264,310.971832 364.110840,314.769165 369.750946,314.840332 
	C375.241302,314.909576 373.876526,311.349487 373.928497,308.467682 
	C374.053864,301.517792 373.896729,294.715973 376.400665,287.873840 
	C384.914612,264.609314 392.894073,241.149109 401.062531,217.758347 
	C401.633362,216.123734 402.080780,214.446014 402.774994,212.166550 
	C396.922943,213.954590 393.593628,216.506241 391.766235,222.021805 
	C384.498108,243.959061 376.649017,265.703857 368.756653,288.273041 
z"/>
<path fill="#0C0A04" opacity="1.000000" stroke="none" 
	d="
M299.104706,348.981567 
	C299.104401,351.642944 298.849426,353.845001 299.155273,355.966217 
	C299.857666,360.837646 297.272919,361.475494 293.310394,361.233337 
	C290.789612,361.079346 289.580811,360.302032 289.777832,357.699341 
	C289.865570,356.540314 289.782501,355.368622 289.782501,354.202667 
	C289.781952,304.066498 289.782013,253.930344 289.782013,203.794189 
	C289.782013,201.844177 289.782013,199.894180 289.782013,197.866821 
	C297.534363,198.981934 299.103424,200.701538 299.103668,207.571259 
	C299.105499,254.542679 299.104675,301.514099 299.104706,348.981567 
z"/>
<path fill="#151106" opacity="1.000000" stroke="none" 
	d="
M368.885864,287.896484 
	C376.649017,265.703857 384.498108,243.959061 391.766235,222.021805 
	C393.593628,216.506241 396.922943,213.954590 402.774994,212.166550 
	C402.080780,214.446014 401.633362,216.123734 401.062531,217.758347 
	C392.894073,241.149109 384.914612,264.609314 376.400665,287.873840 
	C373.896729,294.715973 374.053864,301.517792 373.928497,308.467682 
	C373.876526,311.349487 375.241302,314.909576 369.750946,314.840332 
	C364.110840,314.769165 365.977264,310.971832 365.802429,308.247803 
	C365.362946,301.400513 365.613159,294.610504 368.885864,287.896484 
z"/>
<path fill="#000000" opacity="1.000000" stroke="none" 
	d="
M320.438232,214.256561 
	C320.366455,214.007690 320.672180,213.461899 321.263550,213.127731 
	C321.304749,213.546127 321.060242,213.752884 320.438232,214.256561 
z"/>
</svg>