<svg xmlns="http://www.w3.org/2000/svg" xml:space="preserve" width="2000" height="1500" data-id="lg_DB5NOlaPIN5FgPmnGI" data-version="1" viewBox="0 0 2000 1500"><path fill="#040046" stroke="transparent" d="M0 0h2000v1500H0z"/><g data-padding="20"><g transform="translate(-1661.29 -1253.989)scale(2.59182)"><rect width="450.66" height="262.16" x="552.009" y="542.24" fill="none" rx="0" ry="0" transform="matrix(.96 0 0 .96 217.66 126.81)"/><g transform="translate(117.78 120.82)"><linearGradient id="a" x1="0" x2="1" y1="0" y2="0" gradientUnits="objectBoundingBox"><stop offset="0%" stop-color="#6ee2f5"/><stop offset="100%" stop-color="#6454f0"/></linearGradient><path fill="url(#a)" d="m784.085 843.457 8.04-152.49h23.93l34.43 90.78q2.91 7.83 5.37 14.42 2.46 6.6 4.25 11.74 2.23 5.81 3.8 10.73h.45q1.34-4.92 3.35-10.73 1.79-5.14 4.03-11.74 2.23-6.59 5.36-14.42l35.11-90.78h23.92l7.83 152.49h-19.01l-3.8-83.85q-.45-10.95-.67-18.55-.22-7.61-.22-12.53v-9.39h-.45q-1.34 3.36-3.36 9.17-1.78 4.92-4.58 12.63-2.79 7.72-6.82 18.67l-31.53 83.85h-19l-31.75-83.85q-4.25-10.73-6.93-18.44-2.69-7.72-4.48-12.64-2.01-5.81-3.13-9.39h-.44q.22 3.58.44 9.39.23 9.4-.67 31.08l-4.47 83.85Z" transform="translate(-117.78 -120.83)"/></g><path fill="url(#a)" d="M1038.755 817.297v-25.49q-4.47.23-8.49.45-4.03.22-7.94.56-3.92.33-7.05.78-16.09 2.01-22.8 7.04-6.71 5.04-6.71 14.43 0 7.82 4.81 11.73 4.8 3.92 12.63 3.92 10.73 0 19.12-3.69 8.38-3.69 16.43-9.73m2.01 27.95-2.23-12.3q-10.51 6.04-19.57 9.73-9.05 3.69-19.56 3.69-14.98 0-23.81-7.27-8.84-7.26-8.84-24.03 0-8.72 4.48-15.21 4.47-6.48 11.73-10.84 7.27-4.36 16.44-6.82t18.78-3.13q4.03-.45 10.51-.79 6.48-.33 10.06-.55 0-7.83-.45-13.98-.44-6.15-2.68-10.51-2.23-4.36-6.59-6.59-4.36-2.24-12.41-2.24-6.49 0-12.53.78-6.03.78-10.73 1.68-5.59 1.12-10.28 2.46l-3.58-15.43q5.59-1.34 12.07-2.46 5.59-1.12 12.97-1.9t15.88-.78q11.4 0 18.44 3.35 7.05 3.36 10.96 9.06t5.37 12.97q1.45 7.26 1.45 15.31v53.67q0 3.13.11 6.59.11 3.47.45 6.82.33 3.36.78 6.93Z" transform="translate(0 -.01)"/><path fill="url(#a)" d="m1118.585 840.557-44.95-109.57h19.01l21.02 50.76q3.13 7.38 5.7 14.76t4.58 13.19q2.46 6.93 4.25 13.42h.22q2.02-6.49 4.48-13.42 2.01-5.81 4.69-13.19 2.69-7.38 5.59-14.76l19.45-50.76h18.79l-53.22 134.16q-3.13 8.27-8.16 14.31t-9.73 10.06q-5.59 4.7-11.62 8.05l-8.72-15.42q4.69-2.24 8.72-5.59 3.57-2.91 7.15-7.27t5.81-10.4Z"/><g transform="translate(519.235 126.195)scale(1.73)"><linearGradient id="b" x1="0" x2="1" y1="0" y2="0" gradientUnits="objectBoundingBox"><stop offset="0%" stop-color="#6ee2f5"/><stop offset="100%" stop-color="#6454f0"/></linearGradient><path fill="url(#b)" d="M499.356 388.634h-36a4.5 4.5 0 0 0-4.5 4.5v61a4.5 4.5 0 0 0 4.5 4.5h36a4.5 4.5 0 0 0 4.5-4.5v-61a4.5 4.5 0 0 0-4.5-4.5m3 65.5a3 3 0 0 1-3 3h-36a3 3 0 0 1-3-3v-61a3 3 0 0 1 3-3h36a3 3 0 0 1 3 3Z" transform="translate(-50 -50)"/></g><g transform="translate(519.235 126.195)scale(1.73)"><linearGradient id="c" x1="0" x2="1" y1="0" y2="0" gradientUnits="objectBoundingBox"><stop offset="0%" stop-color="#6ee2f5"/><stop offset="100%" stop-color="#6454f0"/></linearGradient><path fill="url(#c)" d="M499.356 390.884h-36a2.25 2.25 0 0 0-2.25 2.25v61a2.25 2.25 0 0 0 2.25 2.25h36a2.25 2.25 0 0 0 2.25-2.25v-61a2.25 2.25 0 0 0-2.25-2.25m-1.95.5c-1.27 10.11-5.72 19.18-9.7 27.29l-1.81 3.72a71 71 0 0 1-3.56-8.76c1.78-2.69 3.48-4.96 5.15-7.19 3.4-4.55 6.42-8.6 9.24-15.06Zm-9.74 51.28q.4-.75.83-1.47a36 36 0 0 1 1.3 3.32q-.37.69-.78 1.36a28 28 0 0 0-1.35-3.2m1 3.77a22 22 0 0 1-3.02 3.9 17 17 0 0 1 1.75-7.09 28 28 0 0 1 1.28 3.2m.14-5.76q1.03-1.64 2.22-3.2l2.63-.06a65 65 0 0 0-2.43 4.42q-.53 1.04-1.1 2.08a36 36 0 0 0-1.32-3.24m-8.97-3.47c-8.9-10.8-14.69-26.87-15.51-43.08l13.72.05c1.3 16.58 6.36 29.79 16.35 42.73Zm2.31.45a23 23 0 0 0-1.26 2.19 21 21 0 0 1 .16-2.17Zm-17.83-17.41a3.8 3.8 0 0 1-2.14-2.15c-.34-1.24.47-2.56 1.25-3.83a14 14 0 0 0 .83-1.46c1.1 1.88 1.99 4.68.77 5.82a.25.25 0 0 0 .17.44 3 3 0 0 1 2.22.62c.45.52.35 1.37.23 2.34a10 10 0 0 0-.11 1.88c-2.53-.77-3.43-1.76-3.09-3.39a.3.3 0 0 0-.13-.27m3.72 3.52a16 16 0 0 0 4.1 2.51l-.66.2-.66.22a19 19 0 0 1-3.17-2.2l-.02-.04q.07 0 .13.03l.07.01a.25.25 0 0 0 .25-.29Zm2.13 3.13-1.48.5a16 16 0 0 1-.8-2.04 19 19 0 0 0 2.28 1.54m-3.1-2.62a18 18 0 0 0 1.15 3.3q-.55.2-1.06.42a20 20 0 0 1-1.1-4.1 10 10 0 0 0 1 .38m4.56 2.68.8-.25q1.36 2.63 2.89 5.05c-5 1.85-8.13 2.36-9.75 1.56a2.4 2.4 0 0 1-1.28-1.6c-.65-2.26 3.78-3.64 7.34-4.76m-4.77-14.53a9.5 9.5 0 0 1-5.14-5.88 11 11 0 0 0 4.19 2.2q.43 1.86.95 3.68m19.32 10.52 1.98-4.07.74-1.5a2 2 0 0 0 .64.78 10.7 10.7 0 0 0-2.62 6.25Zm1.82 3.43a8 8 0 0 0 1.43-.86 13 13 0 0 0 1.22 3.44l-.76.6a78 78 0 0 1-1.89-3.18m5 7.78q-1.5-2.07-2.84-4.17 1.27-1 2.5-1.94c3.3-2.51 6.21-4.73 7.24-7.49.21 4.8-3.15 8.96-6.69 13.34Zm-1.95-5.5a13 13 0 0 1-1.19-3.5 7 7 0 0 0 .64-.64 10 10 0 0 0 1.24 3.6Zm-3.3-2.72-.41-.76c.3-3.59.94-5.18 4.92-9.29a18 18 0 0 0-.27 2.21c-.22 2.71-.5 6.04-4.23 7.84m2.13-8.19a1.3 1.3 0 0 1-.63-1.09l.48-1a1.25 1.25 0 0 1 1.85.21q-.98 1.02-1.7 1.88m-28.28-24.63c0-.966.784-1.75 1.75-1.75h32.82c-2.77 6.3-5.74 10.28-9.1 14.77a154 154 0 0 0-4.93 6.87 83 83 0 0 1-3.62-19.12.25.25 0 0 0-.25-.23l-14.22-.05a.25.25 0 0 0-.25.26 83 83 0 0 0 1.97 14.31 12 12 0 0 1-4.17-2.37Zm0 14.49a9.7 9.7 0 0 0 5.44 5.46 78 78 0 0 0 4.85 12.58 16 16 0 0 1-3.85-2.51q.04-.53.1-1.04c.13-1.06.26-2.05-.34-2.74a3 3 0 0 0-2.08-.78c1.04-1.66-.18-4.76-1.3-6.46a.25.25 0 0 0-.45.06 9 9 0 0 1-.97 1.82c-.8 1.3-1.7 2.78-1.3 4.23a4 4 0 0 0 2.23 2.38 2.8 2.8 0 0 0 1.6 3.01 20 20 0 0 0 1.17 4.59c-1.96.92-3.34 2.07-2.89 3.64a3 3 0 0 0 1.54 1.92 5 5 0 0 0 2.15.42 16 16 0 0 0 4.19-.7q-.87 2.2-1.7 4.52a7 7 0 0 0-1.07-1.16 9 9 0 0 0-.78-1.61.25.25 0 0 0-.46.17 15 15 0 0 1-.07 4.57 67 67 0 0 0-5.02-8.05 7.5 7.5 0 0 1 .89-4.42 5.7 5.7 0 0 0 .75-3.37 3 3 0 0 0-1.06-2.12 2.6 2.6 0 0 0-1.57-.5Zm7.67 30.33a9.8 9.8 0 0 1 1.48 8.62q-.62-1.47-1.3-2.92a13 13 0 0 0-.18-5.7m-.96-1.32a12 12 0 0 1 .76 6.22q-.54-1.1-1.1-2.18a16 16 0 0 0 .34-4.04m-6.71-14.6a2 2 0 0 1 1.27.4 2.5 2.5 0 0 1 .86 1.77 5.2 5.2 0 0 1-.7 3.1 8 8 0 0 0-.97 3.93l-.46-.59Zm0 15.48a9 9 0 0 1 1.62 2.2 11 11 0 0 0-1.62-1.19Zm0 7.86a26 26 0 0 1 3.2 3.65q-.89-.15-1.82-.26l-.1.04q-.6-.67-1.28-1.3Zm3.4 6.1-.31-.43q.85.19 1.69.42l.36.64q-.86-.33-1.74-.62m.46.69v.02l-.03-.03Zm-1.2-1.71q-.44-.59-.92-1.13.96.12 1.87.28.42.6.8 1.25-.86-.22-1.75-.4m-.91 5.42a1.75 1.75 0 0 1-1.75-1.75v-5.94a26 26 0 0 1 5.33 7.69Zm4.13 0a38 38 0 0 0-1.67-3.13l.12-.43q.58.2 1.14.43a34 34 0 0 1 1.4 3.13Zm1.53 0a28.4 28.4 0 0 0-7.41-11.2v-5.57a13 13 0 0 1 2.23 1.87.25.25 0 0 0 .4-.27 10 10 0 0 0-2.63-3.89v-5.36a75 75 0 0 1 11.86 24.42Zm4.97 0q-.22-.82-.47-1.64a29 29 0 0 1 2.76 1.64Zm3.13 0a29 29 0 0 0-3.79-2.28l-.62-1.9a38 38 0 0 1 7.73 4.18Zm23.99-1.75a1.75 1.75 0 0 1-1.75 1.75h-5.57a27 27 0 0 1 7.32-11.17Zm0-10.1c-3.58 3.28-6.74 7.62-7.87 11.85h-11.93a39 39 0 0 0-8.81-4.8q-.66-1.87-1.42-3.74a10.7 10.7 0 0 0-.74-8.8q.96-2.69 1.96-5.22 1.5-.44 3.3-1.11a56 56 0 0 0 3.93 5.4.3.3 0 0 0 .2.1l.82-.03a20 20 0 0 0-.15 3.26.25.25 0 0 0 .48.1 22 22 0 0 1 1.9-3.4l7.62-.16c-2.95 3.95-5.37 8.2-5.25 13.46a.25.25 0 0 0 .42.17c2.77-2.6 4.46-5.88 6.1-9.05a59 59 0 0 1 2.6-4.66l.64-.01a.25.25 0 0 0 .19-.4l-.3-.4a16 16 0 0 1 4.7-4.6 25 25 0 0 0-5.43 14 .3.3 0 0 0 .14.25.3.3 0 0 0 .27-.04 21 21 0 0 1 6.63-3.62Zm0-1.98a22 22 0 0 0-6.49 3.4 24.6 24.6 0 0 1 6.1-14.15.25.25 0 0 0-.3-.39 15.5 15.5 0 0 0-5.94 5.26l-1.18-1.57.3-.38c3.94-4.88 7.67-9.48 6.63-15.1a.25.25 0 0 0-.5.02c-.4 3.22-3.63 5.68-7.37 8.53l-.22.16a10 10 0 0 1-1.23-3.85 11.5 11.5 0 0 0 1.58-5.83 9 9 0 0 1 .55-3.07.25.25 0 0 0-.4-.28l-.7.7a1.8 1.8 0 0 0-1.85-.58c3.42-7.12 6.75-14.95 7.82-23.54h1.45c.966 0 1.75.784 1.75 1.75Z" transform="translate(-50 -50)"/></g></g><path fill="transparent" stroke="transparent" stroke-width="2.688" d="M250 411.29h1500v677.42H250z"/></g></svg>